# xmcd
#
# Track frame offsets:
#	150
#	11560
#	21752
#	34667
#	47989
#	65662
#	79622
#	93822
#	106670
#	120142
#	130332
#	142017
#	153985
#	164602
#	177732
#	187045
#	205170
#	215167
#
# Disc length: 3045 seconds
#
# Revision: 1
# Processed by: cddbd v1.5.2PL0 Copyright (c) Steve Scherf et al.
# Submitted via: audiograbber 1.83.01
#
DISCID=fa0be312
DTITLE=Various Artist - Country Tracks Volume 6
DYEAR=1997
DGENRE=country
TTITLE0=The Statler Brothers - Daddy sang Bass
TTITLE1=Roger miller - Engine, Engine Number 9
TTITLE2=Lacy J Dalton - Dream Baby (How long must I dream)
TTITLE3=Asleep at the Wheel - Hot rod Lincoln
TTITLE4=Tanya Tucker - The best of my love
TTITLE5=Oak Ridge Boys - Why me
TTITLE6=Conway Twitty - You've never been this far before
TTITLE7=Charley Pride - Crystal Chandelliers
TTITLE8=Patti Page - Tennessee Waltz
TTITLE9=Leroy Van Dyke - Walk on by
TTITLE10=Roy Acuff - Wabash Cannonball
TTITLE11=Jody Miller - Queen of the house
TTITLE12=Patsy Cline - Honky tonk Merry go round
TTITLE13=Mickey Gilley - True love ways
TTITLE14=Lester Flatt and Earl Scruggs - The Ballad of Jed Clampett
TTITLE15=Billy Swan - I can help
TTITLE16=Don Gibson - Lonesome number one
TTITLE17=Gene Autrey - South of the Border (Down Mexico way)
EXTD=
EXTT0=
EXTT1=
EXTT2=
EXTT3=
EXTT4=
EXTT5=
EXTT6=
EXTT7=
EXTT8=
EXTT9=
EXTT10=
EXTT11=
EXTT12=
EXTT13=
EXTT14=
EXTT15=
EXTT16=
EXTT17=
PLAYORDER=
